<?xml version="1.0" standalone="no"?><!DOCTYPE svg PUBLIC "-//W3C//DTD SVG 1.1//EN" "http://www.w3.org/Graphics/SVG/1.1/DTD/svg11.dtd"><svg t="1773801586963" class="icon" viewBox="0 0 1024 1024" version="1.1" xmlns="http://www.w3.org/2000/svg" p-id="6419" xmlns:xlink="http://www.w3.org/1999/xlink" width="200" height="200"><path d="M512.064 1024a512 512 0 1 1 512-512 512.576 512.576 0 0 1-512 512zM289.536 473.6a30.912 30.912 0 0 0-8.064 1.088 40.768 40.768 0 0 0-24.448 24.064 35.584 35.584 0 0 0 7.68 31.296l145.92 154.624a40.704 40.704 0 0 0 30.08 12.8 45.248 45.248 0 0 0 31.36-12.8l288.384-309.184 0.64-0.832a33.856 33.856 0 0 0-2.368-44.288 30.848 30.848 0 0 0-22.656-10.368 32 32 0 0 0-21.184 8.32L442.112 620.672 311.936 482.88a32 32 0 0 0-22.464-9.28z" fill="#2dcd70" p-id="6420"></path></svg>