<?xml version="1.0" standalone="no"?><!DOCTYPE svg PUBLIC "-//W3C//DTD SVG 1.1//EN" "http://www.w3.org/Graphics/SVG/1.1/DTD/svg11.dtd"><svg t="1773801595269" class="icon" viewBox="0 0 1024 1024" version="1.1" xmlns="http://www.w3.org/2000/svg" p-id="7403" xmlns:xlink="http://www.w3.org/1999/xlink" width="200" height="200"><path d="M458.412715 512.477867l-164.4544 162.816a39.867733 39.867733 0 0 0-11.5712 27.511466 40.277333 40.277333 0 0 0 39.936 40.618667c10.990933 0.136533 21.6064-4.232533 29.354666-12.014933l164.1472-162.133334 163.7376 162.133334c7.4752 7.543467 17.681067 11.8784 28.330667 12.014933 10.410667-0.136533 20.343467-4.232533 27.784533-11.434667a39.799467 39.799467 0 0 0 0.546134-56.695466l-163.2256-162.474667 164.2496-162.133333a40.106667 40.106667 0 0 0 0-57.1392 41.096533 41.096533 0 0 0-57.685334 0l-163.874133 162.235733-164.0448-163.2256a41.096533 41.096533 0 0 0-57.685333 0 40.106667 40.106667 0 0 0 0 57.105067l164.4544 162.816zM515.620181 1024C229.992448 1023.112533-0.851285 793.258667 0.002048 510.429867c0.6144-204.526933 124.177067-389.12 314.197333-469.367467 265.659733-103.901867 566.0672 25.088 671.0272 288.085333 101.376 254.1568-16.657067 542.3104-268.219733 654.7456a518.587733 518.587733 0 0 1-201.386667 40.072534z" fill="#EC4956" p-id="7404"></path></svg>